<svg width="24" height="25" viewBox="0 0 24 25" fill="none" xmlns="http://www.w3.org/2000/svg">
<path fill-rule="evenodd" clip-rule="evenodd" d="M4.33474 4.83474C4.78105 4.38842 5.50467 4.38842 5.95098 4.83474L19.6653 18.549C20.1116 18.9953 20.1116 19.719 19.6653 20.1653C19.219 20.6116 18.4953 20.6116 18.049 20.1653L4.33474 6.45098C3.88842 6.00467 3.88842 5.28105 4.33474 4.83474Z" fill="#615E69"/>
<path fill-rule="evenodd" clip-rule="evenodd" d="M19.6653 4.83474C20.1116 5.28105 20.1116 6.00467 19.6653 6.45098L5.95098 20.1653C5.50467 20.6116 4.78105 20.6116 4.33474 20.1653C3.88842 19.719 3.88842 18.9953 4.33474 18.549L18.049 4.83474C18.4953 4.38842 19.219 4.38842 19.6653 4.83474Z" fill="#615E69"/>
</svg>
