<svg width="32" height="34" viewBox="0 0 32 34" fill="none" xmlns="http://www.w3.org/2000/svg">
<path d="M28 14.0104C28 23.8178 16 32.2241 16 32.2241C16 32.2241 4 23.8178 4 14.0104C4 10.6661 5.26428 7.45885 7.51472 5.09411C9.76516 2.72938 12.8174 1.40088 16 1.40088C19.1826 1.40088 22.2348 2.72938 24.4853 5.09411C26.7357 7.45885 28 10.6661 28 14.0104Z" fill="#FFE83A"/>
<path d="M15.9999 20.1853C19.3728 20.1853 22.1071 17.3121 22.1071 13.7678C22.1071 10.2235 19.3728 7.35034 15.9999 7.35034C12.6269 7.35034 9.89258 10.2235 9.89258 13.7678C9.89258 17.3121 12.6269 20.1853 15.9999 20.1853Z" fill="white"/>
</svg>
