<svg width="48" height="52" viewBox="0 0 48 52" fill="none" xmlns="http://www.w3.org/2000/svg">
<rect x="0.333333" y="0.333333" width="47.3333" height="15.3333" rx="7.66667" fill="white"/>
<path d="M9.64436 4.4709C8.3575 4.4709 7.43557 5.19116 7.43557 6.25714C7.43557 7.31352 8.3575 8.05299 9.64436 8.05299C10.9408 8.05299 11.8628 7.31352 11.8628 6.25714C11.8628 5.19116 10.9408 4.4709 9.64436 4.4709ZM9.64436 5.13354C10.4895 5.13354 11.0945 5.59451 11.0945 6.25714C11.0945 6.92938 10.4895 7.38075 9.64436 7.38075C8.79926 7.38075 8.19424 6.92938 8.19424 6.25714C8.19424 5.59451 8.79926 5.13354 9.64436 5.13354ZM9.28903 9.01333V12.4802H10.0861V9.01333H9.28903ZM13.1304 4.06756V12.7587H13.9179V4.06756H13.1304ZM6.89778 9.44549C8.48234 9.44549 10.6143 9.41667 12.5734 9.06135L12.5158 8.46593C10.6047 8.75404 8.40552 8.77324 6.79214 8.77324L6.89778 9.44549ZM21.9552 4.06756V12.7491H22.7523V4.06756H21.9552ZM18.0466 6.1323V6.87176C18.0466 8.38911 17.0863 9.86804 15.7994 10.4634L16.2508 11.0781C17.6433 10.4058 18.69 8.72523 18.69 6.87176V6.1323H18.0466ZM18.2003 6.1323V6.87176C18.2003 8.66761 19.2663 10.2906 20.6684 10.9244L21.1197 10.3002C19.8233 9.73359 18.8341 8.32188 18.8341 6.87176V6.1323H18.2003ZM16.0395 5.5753V6.21873H20.822V5.5753H16.0395ZM18.0466 4.22121V5.93063H18.8437V4.22121H18.0466ZM24.4802 10.982V11.6447H32.3454V10.982H24.4802ZM27.995 8.90769V11.1741H28.7921V8.90769H27.995ZM25.4021 4.68218V9.11897H31.4043V4.68218H30.6168V6.22833H26.1896V4.68218H25.4021ZM26.1896 6.87176H30.6168V8.46593H26.1896V6.87176ZM39.6336 4.06756V12.7491H40.4307V4.06756H39.6336ZM37.0887 4.99909V5.13354C37.0887 7.43837 35.9267 9.28223 33.4202 10.4923L33.8428 11.1357C36.743 9.71438 37.8762 7.51519 37.8762 4.99909H37.0887ZM33.814 4.99909V5.65213H37.4345V4.99909H33.814Z" fill="#4DA360"/>
<rect x="0.333333" y="0.333333" width="47.3333" height="15.3333" rx="7.66667" stroke="#4DA360" stroke-width="0.666667"/>
<path d="M36 32.5796C36 41.9129 24 49.9129 24 49.9129C24 49.9129 12 41.9129 12 32.5796C12 29.397 13.2643 26.3447 15.5147 24.0943C17.7652 21.8439 20.8174 20.5796 24 20.5796C27.1826 20.5796 30.2348 21.8439 32.4853 24.0943C34.7357 26.3447 36 29.397 36 32.5796Z" fill="#4DA360"/>
<path d="M23.9999 38.456C27.3728 38.456 30.1071 35.7217 30.1071 32.3487C30.1071 28.9758 27.3728 26.2415 23.9999 26.2415C20.6269 26.2415 17.8926 28.9758 17.8926 32.3487C17.8926 35.7217 20.6269 38.456 23.9999 38.456Z" fill="white"/>
</svg>
