<svg width="81" height="81" viewBox="0 0 81 81" fill="none" xmlns="http://www.w3.org/2000/svg">
<circle cx="40.5" cy="40.5" r="40.5" fill="#4DA360"/>
<path d="M24.92 56H27.26V43.24H31.58V41.28H20.6V43.24H24.92V56ZM39.122 56.28C42.902 56.28 45.522 53.34 45.522 48.58C45.522 43.84 42.902 41.02 39.122 41.02C35.322 41.02 32.702 43.84 32.702 48.58C32.702 53.34 35.322 56.28 39.122 56.28ZM39.122 54.24C36.662 54.24 35.102 52.02 35.102 48.58C35.102 45.14 36.662 43.04 39.122 43.04C41.562 43.04 43.142 45.14 43.142 48.58C43.142 52.02 41.562 54.24 39.122 54.24ZM48.5802 56H50.9202V50.42H53.1402C56.3402 50.42 58.6802 48.96 58.6802 45.74C58.6802 42.4 56.3402 41.28 53.0602 41.28H48.5802V56ZM50.9202 48.56V43.16H52.8202C55.1802 43.16 56.3802 43.78 56.3802 45.74C56.3802 47.66 55.2602 48.56 52.9202 48.56H50.9202Z" fill="white"/>
<path d="M40 18L54.7224 32.25H25.2776L40 18Z" fill="white"/>
</svg>
